<?xml version="1.0"?>
<svg xmlns="http://www.w3.org/2000/svg" xmlns:xlink="http://www.w3.org/1999/xlink" version="1.1" viewBox="0 0 192 192" width="96px" height="96px"><g fill="none" fill-rule="nonzero" stroke="none" stroke-width="1" stroke-linecap="butt" stroke-linejoin="miter" stroke-miterlimit="10" stroke-dasharray="" stroke-dashoffset="0" font-family="none" font-weight="none" font-size="none" text-anchor="none" style="mix-blend-mode: normal"><path d="M0,192v-192h192v192z" fill="none"/><g><g id="surface1"><path d="M148,160h-104l-24,24v-136c0,-13.20312 10.79688,-24 24,-24h104c13.20312,0 24,10.79688 24,24v88c0,13.20312 -10.79688,24 -24,24z" fill="#ffffff"/><path d="M88,80h16v44h-16z" fill="#26425f"/><path d="M104,60c0,4.42188 -3.57812,8 -8,8c-4.42188,0 -8,-3.57812 -8,-8c0,-4.42188 3.57812,-8 8,-8c4.42188,0 8,3.57812 8,8z" fill="#26425f" /></g></g></g></svg>
