<svg xmlns="http://www.w3.org/2000/svg" viewBox="0 0 33.06 23.03"><defs><style>.cls-1{fill:#26425f;}</style></defs><title>logo_1</title><g id="Calque_2" data-name="Calque 2"><g id="Calque_1-2" data-name="Calque 1"><path class="cls-1" d="M0,3.86C1.2.74,3.5-.09,6.73,0c7,.21,14,.06,21,.07,3.33,0,5.35,2.11,5.32,5.51s-2,5.4-5.23,5.43c-1.39,0-2.79,0-4.72,0l6.48,6-.31.55H25.33v4c-4.38-2.29-5.15-6-4.21-10.41H18.68V23l-3.43-3.26-2.47,3.11-.51-.22V11a53.39,53.39,0,0,0-5.55,0C3.48,11.41,1.2,10.32,0,7.21ZM24.52,2.28H18.3c-2.27,0-2.63.28-2.78,2.61a9.8,9.8,0,0,0,.36,2.9c.09.39.59,1,.91,1,2.67.08,5.35,0,7.73,0Zm-15.41,0c-1.46,0-3.07-.11-4.66,0C2.62,2.48,2.29,4,2.25,5.45s.27,3,2,3.27a34.41,34.41,0,0,0,4.83,0ZM30.85,5.58c0-1.7-1-3.21-2.13-3.27s-2.23,1.34-2.28,3.1,1,3.37,2.21,3.36S30.83,7.31,30.85,5.58Z"/></g></g></svg>