<?xml version="1.0" encoding="utf-8"?>
<!-- Generator: Adobe Illustrator 21.0.0, SVG Export Plug-In . SVG Version: 6.00 Build 0)  -->
<svg version="1.1" id="Calque_1" xmlns="http://www.w3.org/2000/svg" xmlns:xlink="http://www.w3.org/1999/xlink" x="0px" y="0px"
	 viewBox="0 0 33.1 23" style="enable-background:new 0 0 33.1 23;" xml:space="preserve">
<style type="text/css">
	.st0{fill:#4099DE;}
</style>
<title>logo_1</title>
<g id="Calque_2">
	<g id="Calque_1-2">
		<path class="st0" d="M0,3.9C1.2,0.7,3.5-0.1,6.7,0c7,0.2,14,0.1,21,0.1c3.3,0,5.3,2.1,5.3,5.5S31,11,27.8,11c-1.4,0-2.8,0-4.7,0
			l6.5,6l-0.3,0.5h-3.9v4c-4.4-2.3-5.1-6-4.2-10.4h-2.4V23l-3.4-3.3l-2.5,3.1l-0.5-0.2V11c-1.8-0.1-3.7-0.1-5.6,0
			C3.5,11.4,1.2,10.3,0,7.2V3.9z M24.5,2.3h-6.2c-2.3,0-2.6,0.3-2.8,2.6c0,1,0.1,2,0.4,2.9c0.1,0.4,0.6,1,0.9,1c2.7,0.1,5.4,0,7.7,0
			L24.5,2.3z M9.1,2.3c-1.5,0-3.1-0.1-4.7,0C2.6,2.5,2.3,4,2.3,5.4s0.3,3,2,3.3c1.6,0.1,3.2,0.1,4.8,0L9.1,2.3z M30.9,5.6
			c0-1.7-1-3.2-2.1-3.3s-2.2,1.3-2.3,3.1s1,3.4,2.2,3.4S30.8,7.3,30.9,5.6z"/>
	</g>
</g>
</svg>
