<svg xmlns="http://www.w3.org/2000/svg" viewBox="0 0 55.97 55.97"><defs><style>.cls-1{fill:#26425f;}.cls-2{fill:#fff;}</style></defs><title>logo-bl</title><g id="Calque_2" data-name="Calque 2"><g id="Calque_1-2" data-name="Calque 1"><rect class="cls-1" width="55.97" height="55.97" rx="7.84" ry="7.84"/><path class="cls-2" d="M9,19.19c1.38-3.58,4-4.53,7.73-4.42,8,.24,16.08.07,24.12.08,3.83,0,6.15,2.43,6.11,6.33s-2.3,6.2-6,6.24c-1.6,0-3.2,0-5.43,0L43,34.31l-.36.64H38.08v4.61c-5-2.63-5.92-6.87-4.83-12H30.46v13.6l-3.94-3.74L23.68,41l-.59-.25V27.42a61.32,61.32,0,0,0-6.38,0C13,27.86,10.37,26.61,9,23Zm28.16-1.82H30c-2.6,0-3,.32-3.19,3a11.25,11.25,0,0,0,.41,3.33c.11.45.67,1.1,1,1.11,3.07.09,6.14.05,8.88.05Zm-17.69,0c-1.67,0-3.52-.13-5.35,0-2.11.19-2.5,1.91-2.53,3.59s.31,3.48,2.33,3.76a39.52,39.52,0,0,0,5.55.06Zm25,3.77c0-1.95-1.11-3.69-2.44-3.75S39.42,19,39.36,21s1.11,3.87,2.54,3.85S44.41,23.15,44.43,21.16Z"/></g></g></svg>