<?xml version="1.0" encoding="utf-8"?>
<!-- Generator: Adobe Illustrator 21.0.0, SVG Export Plug-In . SVG Version: 6.00 Build 0)  -->
<svg version="1.1" id="Calque_1" xmlns="http://www.w3.org/2000/svg" xmlns:xlink="http://www.w3.org/1999/xlink" x="0px" y="0px"
	 viewBox="0 0 33.1 23" style="enable-background:new 0 0 33.1 23;" xml:space="preserve">
<style type="text/css">
	.st0{fill:#FFFFFF;}
	.st1{fill:#4099DE;}
</style>
<path class="st0" d="M26.5,20.8H9.9c-1.3,0-2.4-1.1-2.4-2.4V3.6c0-1.3,1.1-2.4,2.4-2.4h16.6c1.3,0,2.4,1.1,2.4,2.4v14.8
	C28.9,19.7,27.9,20.8,26.5,20.8z"/>
<title>logo-white</title>
<g id="Calque_2">
	<g id="Calque_1-2">
		<path class="st1" d="M9.7,7.2c0.6-1.8,1.8-2.2,3.5-2.2c3.6,0.1,7.2,0,10.8,0c1.7,0,2.8,1.2,2.7,3.1c0,1.9-1,3-2.7,3.1
			c-0.7,0-1.4,0-2.4,0l3.3,3.4l-0.2,0.3h-2v2.2c-2.3-1.3-2.6-3.4-2.2-5.9h-1.3V18l-1.8-1.8l-1.3,1.7L16,17.8v-6.5
			c-1-0.1-1.9-0.1-2.9,0c-1.7,0.2-2.8-0.4-3.5-2.1V7.2z M22.3,6.3h-3.2c-1.2,0-1.4,0.2-1.4,1.5c0,0.6,0,1.1,0.2,1.6
			c0,0.2,0.3,0.6,0.5,0.6c1.4,0,2.8,0,4,0L22.3,6.3z M14.4,6.3c-0.8,0-1.6-0.1-2.4,0c-0.9,0.1-1.1,1-1.1,1.8c0,0.8,0.1,1.7,1,1.8
			c0.8,0.1,1.7,0.1,2.5,0L14.4,6.3z M25.6,8.2c0-1-0.5-1.8-1.1-1.8s-1.1,0.8-1.2,1.7s0.5,1.9,1.1,1.9C25.1,10,25.6,9.2,25.6,8.2z"/>
	</g>
</g>
</svg>
