<?xml version="1.0"?>
<svg xmlns="http://www.w3.org/2000/svg" height="48px" viewBox="0 0 512 512" width="48px" class=""><g><path d="m512 256c0 141.386719-114.613281 256-256 256s-256-114.613281-256-256 114.613281-256 256-256 256 114.613281 256 256zm0 0" fill="#e1e1e3" data-original="#E1E1E3" class=""/><path d="m512 256c0-6.550781-.25-13.039062-.730469-19.464844l-42.746093-42.746094-212.523438-108.800781-212.523438 108.800781 85.523438 87.710938v106.964844l123.492188 123.492187c1.167968.015625 2.335937.042969 3.507812.042969 141.386719 0 256-114.613281 256-256zm0 0" fill="#c8c6cc" data-original="#C8C6CC" class=""/><path d="m405.085938 208.667969h30v117.332031h-30zm0 0" fill="#ffd400" data-original="#FFD400" class=""/><path d="m129 205.976562h254v182.488282h-254zm0 0" fill="#9331b2" data-original="#9331B2" class=""/><path d="m256 205.96875h127v182.492188h-127zm0 0" fill="#681f7b" data-original="#681F7B" class=""/><path d="m256 84.988281-212.523438 108.800781 212.523438 108.800782 212.523438-108.800782zm0 0" fill="#ab3ccc" data-original="#AB3CCC"/><path d="m468.519531 193.789062-85.519531 43.78125-127 65.019532v-217.601563zm0 0" fill="#9331b2" data-original="#9331B2" class=""/><path d="m441.046875 370.75h-41.917969v-36.578125c0-7.828125 6.347656-14.171875 14.175782-14.171875h13.566406c7.828125 0 14.175781 6.347656 14.175781 14.171875zm0 0" fill="#ff9a00" data-original="#FF9A00" class="active-path" style="fill:#FF9A00"/></g> </svg>
