<?xml version="1.0"?>
<svg xmlns="http://www.w3.org/2000/svg" xmlns:xlink="http://www.w3.org/1999/xlink" version="1.1" viewBox="0 0 192 192" width="52px" height="52px"><g fill="none" fill-rule="nonzero" stroke="none" stroke-width="1" stroke-linecap="butt" stroke-linejoin="miter" stroke-miterlimit="10" stroke-dasharray="" stroke-dashoffset="0" font-family="none" font-weight="none" font-size="none" text-anchor="none" style="mix-blend-mode: normal"><path d="M0,192v-192h192v192z" fill="none"/><g fill="#aaf1ff"><g id="surface1"><path d="M156,0h-120c-19.875,0 -36,16.125 -36,36v120c0,19.875 16.125,36 36,36h120c19.875,0 36,-16.125 36,-36v-120c0,-19.875 -16.125,-36 -36,-36zM166.99038,81.54808l-31.21153,30.46154l7.35577,42.98077c0.40384,2.19231 -0.51923,4.44231 -2.33654,5.74039c-1.00961,0.75 -2.22115,1.125 -3.46154,1.125c-0.92308,0 -1.875,-0.20192 -2.74038,-0.66346l-38.59616,-20.30769l-38.59615,20.30769c-1.99039,1.03846 -4.38462,0.86539 -6.20192,-0.46154c-1.81731,-1.29808 -2.74039,-3.54808 -2.33654,-5.74039l7.35576,-42.98077l-31.21153,-30.46154c-1.61538,-1.5577 -2.19231,-3.89423 -1.5,-6.02884c0.69231,-2.10577 2.53846,-3.66346 4.73077,-3.98077l43.18269,-6.28846l19.29808,-39.11538c1.99039,-4.00962 8.56731,-4.00962 10.5577,0l19.29808,39.11538l43.18269,6.28846c2.22116,0.31731 4.06731,1.875 4.73077,3.98077c0.69231,2.13461 0.11538,4.47115 -1.5,6.02884z"/></g></g></g></svg>
