<?xml version="1.0"?>
<svg xmlns="http://www.w3.org/2000/svg" xmlns:xlink="http://www.w3.org/1999/xlink" version="1.1" viewBox="0 0 192 192" width="100px" height="100px"><g fill="none" fill-rule="nonzero" stroke="none" stroke-width="1" stroke-linecap="butt" stroke-linejoin="miter" stroke-miterlimit="10" stroke-dasharray="" stroke-dashoffset="0" font-family="none" font-weight="none" font-size="none" text-anchor="none" style="mix-blend-mode: normal"><path d="M0,192v-192h192v192z" fill="none"/><g fill="#aaf1ff"><path d="M26.88,15.36c-6.31855,0 -11.52,5.20145 -11.52,11.52v138.24c0,6.31855 5.20145,11.52 11.52,11.52h138.24c6.31855,0 11.52,-5.20145 11.52,-11.52v-138.24c0,-6.31855 -5.20145,-11.52 -11.52,-11.52zM26.88,23.04h138.24c2.12945,0 3.84,1.71055 3.84,3.84v138.24c0,2.12945 -1.71055,3.84 -3.84,3.84h-138.24c-2.12945,0 -3.84,-1.71055 -3.84,-3.84v-138.24c0,-2.12945 1.71055,-3.84 3.84,-3.84zM86.4,49.92c-20.10186,0 -36.48,16.37814 -36.48,36.48c0,20.10186 16.37814,36.48 36.48,36.48c8.67156,0 16.63517,-3.06524 22.905,-8.145l30.06,30.06l5.43,-5.43l-30.06,-30.06c5.07976,-6.26983 8.145,-14.23344 8.145,-22.905c0,-20.10186 -16.37814,-36.48 -36.48,-36.48zM86.4,57.6c15.95128,0 28.8,12.84872 28.8,28.8c0,15.95128 -12.84872,28.8 -28.8,28.8c-15.95128,0 -28.8,-12.84872 -28.8,-28.8c0,-15.95128 12.84872,-28.8 28.8,-28.8z"/></g></g></svg>
