<?xml version="1.0"?>
<svg xmlns="http://www.w3.org/2000/svg" xmlns:xlink="http://www.w3.org/1999/xlink" version="1.1" viewBox="0 0 192 192" width="96px" height="96px"><g fill="none" fill-rule="nonzero" stroke="none" stroke-width="1" stroke-linecap="butt" stroke-linejoin="miter" stroke-miterlimit="10" stroke-dasharray="" stroke-dashoffset="0" font-family="none" font-weight="none" font-size="none" text-anchor="none" style="mix-blend-mode: normal"><path d="M0,192v-192h192v192z" fill="none"/><g fill="#aaf1ff"><path d="M144,16c-13.16008,0 -24,10.83992 -24,24c0,1.52762 0.17433,3.01698 0.45313,4.46875l-57.07813,33.29687c-4.18668,-3.54279 -9.51838,-5.76562 -15.375,-5.76562c-13.16008,0 -24,10.83992 -24,24c0,13.16008 10.83992,24 24,24c5.85662,0 11.18832,-2.22283 15.375,-5.76562l57.07813,33.28125c-0.28069,1.45649 -0.45313,2.95146 -0.45313,4.48438c0,13.16008 10.83992,24 24,24c13.16008,0 24,-10.83992 24,-24c0,-13.16008 -10.83992,-24 -24,-24c-5.86016,0 -11.18726,2.23462 -15.375,5.78125l-57.07812,-33.3125c0.2788,-1.45178 0.45312,-2.94113 0.45312,-4.46875c0,-1.52762 -0.17432,-3.01698 -0.45312,-4.46875l57.07812,-33.29687c4.18668,3.54279 9.51838,5.76562 15.375,5.76562c13.16008,0 24,-10.83992 24,-24c0,-13.16008 -10.83992,-24 -24,-24zM144,32c4.51303,0 8,3.48696 8,8c0,4.51304 -3.48697,8 -8,8c-4.51303,0 -8,-3.48696 -8,-8c0,-4.51304 3.48697,-8 8,-8zM48,88c4.51304,0 8,3.48697 8,8c0,4.51303 -3.48696,8 -8,8c-4.51304,0 -8,-3.48697 -8,-8c0,-4.51303 3.48696,-8 8,-8zM144,144c4.51303,0 8,3.48697 8,8c0,4.51303 -3.48697,8 -8,8c-4.51303,0 -8,-3.48697 -8,-8c0,-4.51303 3.48697,-8 8,-8z"/></g></g></svg>
